<svg id="logo-large" xmlns="http://www.w3.org/2000/svg" width="355.222" height="222.555" viewBox="0 0 355.222 222.555">
  <g id="Group_2" data-name="Group 2">
    <g id="Group_224" data-name="Group 224">
      <path id="Path_13" data-name="Path 13" d="M18,125.109V104.153h6.315v20.5c0,4.255,2.379,6.5,6.131,6.5,3.845,0,6.178-2.243,6.178-6.5v-20.5h6.314v20.956c0,7.963-5.537,12.217-12.492,12.217-6.91,0-12.446-4.253-12.446-12.217" transform="translate(3.452 19.974)" fill="#282828"/>
      <path id="Path_14" data-name="Path 14" d="M54.538,124.1h-3.3V136.6H44.882V104.153H57.558c6.315,0,10.341,4.345,10.341,9.975a9.206,9.206,0,0,1-6.909,9.2L67.944,136.6H60.9Zm1.829-5.446c3.2,0,5.081-1.829,5.081-4.482,0-2.747-1.878-4.531-5.081-4.531H51.243v9.013Z" transform="translate(8.607 19.974)" fill="#282828"/>
      <path id="Path_15" data-name="Path 15" d="M93.445,136.706,93.033,133c-1.464,2.194-4.668,4.391-9.563,4.391-8.741,0-16.2-6.406-16.2-16.884s7.825-16.93,16.611-16.93c8.512,0,13.224,4.988,14.826,9.974L92.666,115.7a8.662,8.662,0,0,0-8.785-6.222c-4.9,0-10.2,3.339-10.2,11.026,0,7.322,4.8,11.118,10.248,11.118,6,0,8.329-4.026,8.7-6.313H82.371v-5.492h16.2v16.885Z" transform="translate(12.901 19.864)" fill="#282828"/>
      <path id="Path_16" data-name="Path 16" d="M98.875,136.6V104.154h20.317V110.1h-14v7.413h12.676v5.629H105.19v7.5h14V136.6Z" transform="translate(18.962 19.975)" fill="#282828"/>
      <path id="Path_17" data-name="Path 17" d="M142.274,136.6,127.54,113.581V136.6h-6.315V104.154H129.1l13.5,21.459V104.154h6.315V136.6Z" transform="translate(23.248 19.975)" fill="#282828"/>
      <path id="Path_18" data-name="Path 18" d="M164.8,110.147v26.447h-6.361V110.147H148.183v-5.993h26.86v5.993Z" transform="translate(28.419 19.975)" fill="#282828"/>
      <path id="Path_19" data-name="Path 19" d="M182.322,120.508c0-10.34,7.823-16.932,16.518-16.932,8.971,0,13.59,5.493,14.873,10.755l-5.952,1.876c-.777-3.111-3.292-6.543-8.922-6.543-4.849,0-9.975,3.479-9.975,10.844,0,6.91,4.853,10.708,10.067,10.708a9.015,9.015,0,0,0,9.106-6.635l5.9,1.784c-1.235,4.989-5.9,11.028-15.009,11.028-9.06,0-16.61-6.544-16.61-16.885" transform="translate(34.966 19.864)" fill="#282828"/>
      <path id="Path_20" data-name="Path 20" d="M233.107,129.182H219.929l-2.7,7.414H210.55l12.445-32.443h7.322L242.671,136.6h-6.865Zm-11.073-5.766H231l-4.486-12.261Z" transform="translate(40.379 19.974)" fill="#282828"/>
      <path id="Path_21" data-name="Path 21" d="M250.658,124.1h-3.3V136.6H241V104.153h12.676c6.315,0,10.341,4.345,10.341,9.975a9.206,9.206,0,0,1-6.909,9.2l6.954,13.272h-7.046Zm1.829-5.446c3.2,0,5.081-1.829,5.081-4.482,0-2.747-1.878-4.531-5.081-4.531h-5.125v9.013Z" transform="translate(46.219 19.974)" fill="#282828"/>
      <path id="Path_22" data-name="Path 22" d="M265,136.6V104.154H285.32V110.1h-14v7.413h12.676v5.629H271.318v7.5h14V136.6Z" transform="translate(50.822 19.975)" fill="#282828"/>
      <path id="Path_23" data-name="Path 23" d="M288.883,100.6a5.469,5.469,0,1,1,5.47,5.516,5.475,5.475,0,0,1-5.47-5.516m.783,0a4.689,4.689,0,1,0,4.687-4.806,4.7,4.7,0,0,0-4.687,4.806m3.71,2.975h-.751V97.563h1.968a1.787,1.787,0,0,1,1.907,1.789,1.73,1.73,0,0,1-1.412,1.728l1.444,2.492h-.888l-1.383-2.432h-.885Zm1.112-3.094c.781,0,1.263-.421,1.263-1.112a1.112,1.112,0,0,0-1.263-1.142h-1.112v2.254Z" transform="translate(55.402 18.232)" fill="#282828"/>
      <path id="Path_24" data-name="Path 24" d="M0,145.3a5.469,5.469,0,1,1,5.47,5.516A5.475,5.475,0,0,1,0,145.3m.783,0A4.689,4.689,0,1,0,5.47,140.5,4.7,4.7,0,0,0,.783,145.3m3.71,2.975H3.742v-6.009H5.71a1.787,1.787,0,0,1,1.907,1.789A1.73,1.73,0,0,1,6.2,145.785l1.444,2.492H6.761l-1.382-2.432H4.493ZM5.6,145.184c.781,0,1.263-.421,1.263-1.112A1.112,1.112,0,0,0,5.6,142.93H4.493v2.254Z" transform="translate(0 26.806)" fill="#282828"/>
      <path id="Path_25" data-name="Path 25" d="M142.97,176.988a3.849,3.849,0,1,1-3.849,3.845,3.765,3.765,0,0,1,3.849-3.845" transform="translate(26.681 33.943)" fill="#282828"/>
      <path id="Path_26" data-name="Path 26" d="M55.682,176.988a3.849,3.849,0,1,1-3.849,3.845,3.765,3.765,0,0,1,3.849-3.845" transform="translate(9.941 33.943)" fill="#282828"/>
      <path id="Path_27" data-name="Path 27" d="M150.628,176.988a3.849,3.849,0,1,1-3.849,3.845,3.765,3.765,0,0,1,3.849-3.845" transform="translate(28.149 33.943)" fill="#282828"/>
      <path id="Path_28" data-name="Path 28" d="M129.054,147.041a3.849,3.849,0,1,1-3.849,3.845,3.765,3.765,0,0,1,3.849-3.845" transform="translate(24.012 28.2)" fill="#282828"/>
      <path id="Path_29" data-name="Path 29" d="M136.712,147.041a3.849,3.849,0,1,1-3.849,3.845,3.765,3.765,0,0,1,3.849-3.845" transform="translate(25.481 28.2)" fill="#282828"/>
      <path id="Path_30" data-name="Path 30" d="M19.967,147.041a3.849,3.849,0,1,1-3.849,3.845,3.765,3.765,0,0,1,3.849-3.845" transform="translate(3.091 28.2)" fill="#282828"/>
      <path id="Path_31" data-name="Path 31" d="M27.624,147.041a3.849,3.849,0,1,1-3.849,3.845,3.765,3.765,0,0,1,3.849-3.845" transform="translate(4.56 28.2)" fill="#282828"/>
      <path id="Path_32" data-name="Path 32" d="M194.235,186.693c3.845,0,6.179-2.242,6.179-6.5V154.783h6.313v25.87c0,7.963-5.536,12.218-12.492,12.218" transform="translate(37.25 29.684)" fill="#282828"/>
      <rect id="Rectangle_8" data-name="Rectangle 8" width="6.177" height="20.078" transform="translate(189.939 176.858)" fill="#282828"/>
      <path id="Path_33" data-name="Path 33" d="M165.551,165.245c0,3.845,2.242,6.179,6.5,6.179H195.2v6.313H171.592c-7.963,0-12.218-5.536-12.218-12.492" transform="translate(30.565 31.691)" fill="#282828"/>
      <path id="Path_34" data-name="Path 34" d="M185.727,154.782h9.155V161.1h-8.7c-4.255,0-6.5,2.379-6.5,6.131,0,3.845,2.243,6.178,6.5,6.178h8.7v6.314h-9.155c-7.963,0-12.217-5.537-12.217-12.492,0-6.91,4.253-12.446,12.217-12.446" transform="translate(33.276 29.684)" fill="#282828"/>
      <rect id="Rectangle_9" data-name="Rectangle 9" width="6.177" height="20.078" transform="translate(84.737 176.858)" fill="#282828"/>
      <path id="Path_35" data-name="Path 35" d="M77.278,165.245c0,3.845,2.242,6.179,6.5,6.179H114.1v6.313H83.319c-7.963,0-12.218-5.536-12.218-12.492" transform="translate(13.636 31.691)" fill="#282828"/>
      <rect id="Rectangle_10" data-name="Rectangle 10" width="6.177" height="20.078" transform="translate(49.241 176.858)" fill="#282828"/>
      <path id="Path_36" data-name="Path 36" d="M42.372,165.245c0,3.845-2.242,6.179-6.5,6.179h-.06v6.313h.515c7.963,0,12.218-5.536,12.218-12.492" transform="translate(6.869 31.691)" fill="#282828"/>
      <path id="Path_37" data-name="Path 37" d="M103.467,154.782h9.155V161.1h-8.7c-4.255,0-6.5,2.379-6.5,6.131,0,3.845,2.243,6.178,6.5,6.178h8.7v6.314h-9.155c-7.963,0-12.217-5.537-12.217-12.492,0-6.91,4.253-12.446,12.217-12.446" transform="translate(17.5 29.684)" fill="#282828"/>
      <path id="Path_38" data-name="Path 38" d="M60.6,179.72H35.469V173.4H60.14c4.255,0,6.5-2.379,6.5-6.13,0-3.845-2.243-6.178-6.5-6.178h-8.7v-6.314H60.6c7.963,0,12.216,5.537,12.216,12.492,0,6.91-4.252,12.446-12.216,12.446" transform="translate(6.802 29.684)" fill="#282828"/>
      <path id="Path_39" data-name="Path 39" d="M153.106,156.278v8.7c0,4.253-2.334,6.5-6.179,6.5-3.2,0-5.393-1.649-5.967-4.778h-6.422c.559,7.146,5.858,10.955,12.39,10.955,6.956,0,12.492-4.255,12.492-12.218v-9.155Z" transform="translate(25.802 29.971)" fill="#282828"/>
      <path id="Path_40" data-name="Path 40" d="M33.231,166.493V163.11a5.316,5.316,0,0,0-5.317-5.317h-10.4v6.325c.129,0,.237-.011.367-.011h9.035v2.842c0,7.948,5.517,12.2,12.409,12.216v-6.312c-3.729-.015-6.094-2.12-6.094-6.361" transform="translate(3.359 30.262)" fill="#282828"/>
      <path id="Path_41" data-name="Path 41" d="M142.319,164.978v-3.383A5.316,5.316,0,0,0,137,156.278H126.6V162.6c.129,0,.237-.011.367-.011H136v2.842c0,7.948,5.517,12.2,12.409,12.216v-6.176c-3.729-.016-6.094-2.256-6.094-6.5" transform="translate(24.28 29.971)" fill="#282828"/>
      <path id="Path_49" data-name="Path 49" d="M124.382,58.647a2.806,2.806,0,0,1-1.984-4.79l.864-.866a15.934,15.934,0,1,0-22.534-22.534l-21.22,21.22a5.288,5.288,0,0,1-7.47,0L50.816,30.455a15.954,15.954,0,0,0-22.522-.013l-.015.014a15.94,15.94,0,0,0,0,22.537l.865.863a2.806,2.806,0,1,1-3.967,3.97l-.865-.865A21.547,21.547,0,0,1,24.295,26.5l.017-.017a21.569,21.569,0,0,1,30.471,0L75.772,47.475,96.758,26.488a21.411,21.411,0,0,1,15.237-6.312h0a21.548,21.548,0,0,1,15.236,36.783l-.865.866a2.805,2.805,0,0,1-1.984.821" transform="translate(3.452 3.869)" fill="#ea5c1c"/>
      <path id="Path_50" data-name="Path 50" d="M72.778,96.422a11.366,11.366,0,0,1-8.092-3.353L34.436,62.821a2.806,2.806,0,0,1,3.97-3.967L68.653,89.1a5.835,5.835,0,0,0,8.249,0l30.246-30.249a2.805,2.805,0,0,1,3.967,3.967L80.87,93.071a11.37,11.37,0,0,1-8.092,3.351" transform="translate(6.447 11.129)" fill="#ea5c1c"/>
      <path id="Path_51" data-name="Path 51" d="M73.708,87.059a2.813,2.813,0,0,1-1.984-.821L31.315,45.829A8.724,8.724,0,0,1,43.651,33.491L63.606,53.446a2.806,2.806,0,0,1-3.967,3.969L39.683,37.461a3.111,3.111,0,0,0-4.4,4.4L73.708,80.285,112.129,41.86a3.11,3.11,0,1,0-4.4-4.4l-19.96,19.96a2.806,2.806,0,1,1-3.967-3.97l19.958-19.958A8.723,8.723,0,0,1,116.1,45.828L75.692,86.238a2.813,2.813,0,0,1-1.984.821" transform="translate(5.516 5.933)" fill="#ea5c1c"/>
      <path id="Path_52" data-name="Path 52" d="M69.32,35.373A17.687,17.687,0,1,1,87.007,17.687,17.706,17.706,0,0,1,69.32,35.373m0-29.761A12.075,12.075,0,1,0,81.4,17.687,12.089,12.089,0,0,0,69.32,5.612" transform="translate(9.902)" fill="#ea5c1c"/>
    </g>
  </g>
</svg>
