<svg xmlns="http://www.w3.org/2000/svg" width="10.5" height="15.749" viewBox="0 0 10.5 15.749">
  <path id="Path_122" data-name="Path 122" d="M5.25,0A3.937,3.937,0,0,0,2.8,7.022,4.525,4.525,0,0,0,1.565,7.8,5.132,5.132,0,0,0,0,11.812v3.937H1.312V11.812A3.848,3.848,0,0,1,2.439,8.78,4.167,4.167,0,0,1,5.25,7.875a4.165,4.165,0,0,1,2.813.9,3.851,3.851,0,0,1,1.125,3.038v3.937H10.5V11.812A5.123,5.123,0,0,0,8.934,7.8,4.493,4.493,0,0,0,7.7,7.022,3.939,3.939,0,0,0,5.25,0m0,6.562A2.625,2.625,0,1,0,2.625,3.937,2.625,2.625,0,0,0,5.25,6.562M3.937,12.468H2.625v3.281H3.937Zm3.937,0H6.562v3.281H7.875Z" fill-rule="evenodd"/>
</svg>
