<svg xmlns="http://www.w3.org/2000/svg" width="10.465" height="14.774" viewBox="0 0 10.465 14.774">
  <path id="Path_123" data-name="Path 123" d="M1.163,4.309A4.193,4.193,0,0,1,5.233,0,4.193,4.193,0,0,1,9.3,4.309a4.439,4.439,0,0,1-1,2.826A5.38,5.38,0,0,1,10.465,11.7v3.078H0V11.7A5.385,5.385,0,0,1,2.159,7.135a4.442,4.442,0,0,1-1-2.826m4.07,4.309A3.874,3.874,0,0,0,7.351,7.99L5.245,10.348,3.123,8a3.9,3.9,0,0,0,2.11.622M5.814,11.5l2.48-2.776A4.421,4.421,0,0,1,9.3,11.7v1.847H5.814Zm-1.163-.031L2.172,8.723A4.421,4.421,0,0,0,1.163,11.7v1.847H4.651Zm-2.3-7.59A2.969,2.969,0,0,1,5.233,1.231,2.957,2.957,0,0,1,8.084,3.706a2.212,2.212,0,0,1-.565-.062,2.491,2.491,0,0,1-1.261-.966l-.444-.554-.444.554a3.364,3.364,0,0,1-1.638,1.2,2.5,2.5,0,0,1-1.378,0M8.079,4.937a2.955,2.955,0,0,1-2.847,2.45,2.942,2.942,0,0,1-2.8-2.235A3.471,3.471,0,0,0,4.044,5.06a4.134,4.134,0,0,0,1.77-1.09,3.1,3.1,0,0,0,1.42.862,3.189,3.189,0,0,0,.845.1" fill-rule="evenodd"/>
</svg>
